<svg width="64" height="44" viewBox="0 0 64 44" fill="none" xmlns="http://www.w3.org/2000/svg">
<path d="M8.24398 31.9492L5.50402 39.0753L2.75602 31.9492C2.55285 31.4191 2.02205 31.0662 1.42057 31.0662C0.640021 31.0662 0 31.6621 0 32.4058V42.1385C0 42.6466 0.436852 43.0662 0.98372 43.0662C1.53059 43.0662 1.96744 42.6542 1.96744 42.1385V34.8208L4.3637 40.8208C4.54358 41.2623 4.99569 41.5569 5.49599 41.5569C5.99628 41.5569 6.45642 41.2623 6.62827 40.8132L9.03256 34.6587V42.1385C9.03256 42.6466 9.46941 43.0662 10.0163 43.0662C10.5631 43.0662 11 42.6542 11 42.1385V32.4058C10.9992 31.6697 10.3672 31.0662 9.57863 31.0662C8.97715 31.0662 8.44634 31.4198 8.24398 31.9499" fill="white"/>
<path d="M21.9711 43.0662C21.5325 43.0662 21.1398 42.8011 21.0013 42.4036L20.4162 40.7914L19.7314 38.8998L18 34.13L16.2686 38.8998L15.5838 40.7914L14.9987 42.4036C14.8523 42.8011 14.4675 43.0662 14.0289 43.0662C13.3133 43.0662 12.8129 42.3816 13.067 41.7334L16.9914 31.7363C17.1379 31.3312 17.5377 31.0662 17.9921 31.0662C18.4465 31.0662 18.8463 31.3312 19.0078 31.7363L22.933 41.7334C23.1871 42.3809 22.6867 43.0662 21.9711 43.0662Z" fill="white"/>
<path d="M27.4943 41.1819L32.6219 33.1344C32.7609 32.9209 32.83 32.6778 32.83 32.4279C32.83 31.6766 32.189 31.0662 31.4017 31.0662H26.1502C25.6021 31.0662 25.1621 31.4857 25.1621 32.0083C25.1621 32.5309 25.6021 32.9504 26.1502 32.9504H30.3508L25.2081 40.9979C25.0691 41.2114 25 41.4545 25 41.7045C25 42.4557 25.641 43.0662 26.4283 43.0662H32.0118C32.5599 43.0662 33 42.639 33 42.124C33 41.609 32.5599 41.1819 32.0118 41.1819H27.4943Z" fill="white"/>
<path d="M43.9711 43.0662C43.5325 43.0662 43.1398 42.8011 43.0013 42.4036L42.4162 40.7914L41.7314 38.8998L40 34.13L38.2686 38.8998L37.5838 40.7914L36.9987 42.4036C36.8523 42.8011 36.4675 43.0662 36.0289 43.0662C35.3133 43.0662 34.8129 42.3816 35.067 41.7334L38.9914 31.7363C39.1379 31.3312 39.5456 31.0662 39.9921 31.0662C40.4386 31.0662 40.8463 31.3312 41.0078 31.7363L44.933 41.7334C45.1871 42.3809 44.6867 43.0662 43.9711 43.0662Z" fill="white"/>
<path d="M51.9859 31.611L49.5041 36.3625L47.0222 31.611C46.8486 31.2799 46.4758 31.0662 46.0622 31.0662C45.2757 31.0662 44.7634 31.8028 45.1106 32.4287L48.3951 38.3147V42.0863C48.3951 42.6312 48.8913 43.0662 49.4956 43.0662C50.0998 43.0662 50.596 42.6244 50.596 42.0863V38.3147L53.8805 32.4287C54.2448 31.8028 53.7316 31.0662 52.9451 31.0662C52.5315 31.0662 52.1587 31.2799 51.9851 31.611" fill="white"/>
<path d="M62.9659 43.0662C62.5275 43.0662 62.1351 42.8011 61.9966 42.4036L61.4119 40.7914L60.7275 38.8998L58.9971 34.13L57.2667 38.8998L56.5823 40.7914L55.9976 42.4036C55.8512 42.8011 55.4667 43.0662 55.0283 43.0662C54.3131 43.0662 53.813 42.3816 54.067 41.7334L57.9899 31.7363C58.1363 31.3312 58.5437 31.0662 58.9979 31.0662C59.4521 31.0662 59.8516 31.3312 60.013 31.7363L63.9359 41.7334C64.182 42.3809 63.6898 43.0662 62.9667 43.0662" fill="white"/>
<g clip-path="url(#clip0_1904_40692)">
<path d="M10.8176 2.89443L15.5399 13.3823C15.8693 14.1125 16.5952 14.5879 17.4021 14.6007L17.5121 14.6023C19.0417 14.6279 20.0728 13.0625 19.4342 11.687L16.2496 4.82303L14.6092 1.21272C14.2741 0.475267 13.532 0.000732422 12.7146 0.000732422C11.2101 0.000732422 10.205 1.53495 10.8168 2.89523L10.8176 2.89443Z" fill="white"/>
<path d="M20.038 20.3776C21.3664 20.3776 22.4433 19.311 22.4433 17.9953C22.4433 16.6796 21.3664 15.613 20.038 15.613C18.7097 15.613 17.6328 16.6796 17.6328 17.9953C17.6328 19.311 18.7097 20.3776 20.038 20.3776Z" fill="#F15D2A"/>
<path d="M34.0634 4.79657C35.3918 4.79657 36.4687 3.72998 36.4687 2.41428C36.4687 1.09857 35.3918 0.0319824 34.0634 0.0319824C32.7351 0.0319824 31.6582 1.09857 31.6582 2.41428C31.6582 3.72998 32.7351 4.79657 34.0634 4.79657Z" fill="#F15D2A"/>
<path d="M52.644 13.8519C53.1524 12.6363 52.5696 11.2428 51.3423 10.7393C50.1151 10.2358 48.7081 10.813 48.1997 12.0285C47.6914 13.2441 48.2742 14.6377 49.5014 15.1412C50.7287 15.6447 52.1357 15.0674 52.644 13.8519Z" fill="#F15D2A"/>
<path d="M35.3647 22.9709L33.9306 19.8599C33.9047 19.8046 33.8829 19.7469 33.8626 19.6892C33.8319 19.6018 33.7987 19.516 33.7606 19.4295C32.766 17.1754 31.7091 14.9462 30.6392 12.7235L25.2695 1.17431C24.9361 0.459305 24.2142 0 23.4186 0C21.94 0 20.9543 1.51018 21.5605 2.84561L31.4428 24.6333C31.7665 25.3467 32.4771 25.8117 33.267 25.8245L33.4774 25.8285C34.9754 25.8533 35.987 24.3215 35.3647 22.9725V22.9709Z" fill="white"/>
<path d="M0.181255 2.8432L10.0644 24.6325C10.3873 25.3459 11.0987 25.8092 11.8878 25.8221L12.0949 25.8253C13.593 25.8501 14.6054 24.3175 13.9806 22.9684L3.89027 1.17592C3.55765 0.459305 2.83494 0 2.0386 0C0.560816 0 -0.424101 1.50857 0.181255 2.8432Z" fill="white"/>
<path d="M46.2442 0.768729C45.5951 1.00279 43.6415 2.18672 42.5376 3.06926L42.536 3.06525C41.8926 3.5975 41.6911 4.49126 42.0439 5.24395C42.6088 6.44631 44.1538 6.80222 45.2099 5.98621C46.682 4.84716 48.5361 4.16823 50.5505 4.16823C53.5004 4.16823 56.1055 5.6255 57.6755 7.85148C58.0373 8.33964 58.3529 8.87189 58.6111 9.44422C62.5224 18.1365 51.4836 26.0473 44.6062 19.1353C43.9118 18.4371 43.3226 17.6251 42.7966 16.737L38.1723 6.65873C37.7862 5.81788 36.8927 5.3233 35.9677 5.43793C34.5701 5.61107 33.7252 7.05551 34.2674 8.34365L35.5493 11.3889C39.2745 19.4792 41.7372 26.3712 52.3633 25.6369C58.166 25.2353 63.0056 20.1742 63.6571 14.5326C64.7391 5.16058 55.3261 -2.4953 46.245 0.769531V0.767928L46.2442 0.768729Z" fill="white"/>
<path d="M22.4677 25.9999C23.7961 25.9999 24.873 24.9333 24.873 23.6176C24.873 22.3019 23.7961 21.2354 22.4677 21.2354C21.1394 21.2354 20.0625 22.3019 20.0625 23.6176C20.0625 24.9333 21.1394 25.9999 22.4677 25.9999Z" fill="#F15D2A"/>
</g>
<defs>
<clipPath id="clip0_1904_40692">
<rect width="63.742" height="26" fill="white"/>
</clipPath>
</defs>
</svg>
