<svg width="82" height="65" viewBox="0 0 82 65" fill="none" xmlns="http://www.w3.org/2000/svg">
<g clip-path="url(#clip0_1569_39975)">
<path d="M6.14774 12.1278C9.54304 12.1278 12.2955 9.42867 12.2955 6.09912C12.2955 2.76957 9.54304 0.0704346 6.14774 0.0704346C2.75244 0.0704346 0 2.76957 0 6.09912C0 9.42867 2.75244 12.1278 6.14774 12.1278Z" fill="white"/>
<path d="M37.2822 1.93541C35.6234 2.52723 30.6305 5.52239 27.8074 7.75597L27.8027 7.74551C26.1593 9.09193 25.6424 11.3534 26.5447 13.2579C27.9888 16.3019 31.9359 17.2019 34.6357 15.1357C38.3991 12.2522 43.1359 10.536 48.2841 10.536C55.8226 10.536 62.4826 14.2242 66.4937 19.8564C67.4197 21.0923 68.2248 22.4388 68.884 23.8875C78.8793 45.8838 50.6673 65.9011 33.0908 48.4104C31.317 46.643 29.8112 44.5897 28.4667 42.341L16.6478 16.838C15.6613 14.709 13.3777 13.4591 11.0135 13.7498C7.44222 14.1881 5.28191 17.8437 6.66797 21.1028L9.94518 28.8093C19.465 49.2812 25.7598 66.722 52.9189 64.864C67.7493 63.8489 80.1195 51.0404 81.7842 36.7657C84.5504 13.0498 60.4918 -6.32337 37.2822 1.9389V1.93425V1.93541Z" fill="white"/>
<path d="M46.9875 20.6235C47.3643 21.0068 47.0499 22.4838 47.0211 22.9869C46.7223 28.2534 45.2655 35.378 43.0935 40.1714C42.4539 41.5839 40.8903 45.0455 38.6451 44.6921C36.388 44.3364 38.6619 41.6254 39.1455 40.6595C39.3855 40.1807 40.5159 37.8898 39.9459 37.5537C39.3759 37.2176 38.9127 37.8576 38.5083 38.1074C37.0768 38.9927 34.2508 40.6354 32.536 40.7344C32.0092 40.7643 31.4392 40.7643 30.9844 40.5087C29.9836 39.9481 30.0064 38.729 30.8476 38.0533C32.4568 36.7594 37.18 35.9881 37.3324 33.6317C37.4848 31.2672 33.5116 28.7197 33.1192 26.5393C32.9884 25.8107 33.4108 24.991 34.366 25.3513C34.9672 25.5781 36.3832 27.2139 37.0768 27.7078C41.6067 30.9299 43.6251 28.2454 44.9211 24.511C45.2811 23.4726 45.4443 22.1177 45.8307 21.1807C45.9867 20.8031 46.5663 20.1964 46.9875 20.6235Z" fill="#D9F5F6"/>
<path d="M39.9054 21.0609C40.833 20.9642 41.7965 21.5375 42.3089 22.1591C43.1825 23.217 43.1909 25.2857 41.9309 26.1571C39.921 27.5454 37.7358 25.7047 37.6266 23.8582C37.5582 22.7082 38.487 21.2082 39.9054 21.0609Z" fill="#D9F5F6"/>
<path d="M53.1445 21.5881C53.1925 21.6376 53.1817 21.7274 53.1361 21.8391C52.7737 22.1787 52.5037 22.5908 52.3789 23.0018C52.2433 23.4507 52.2337 23.9423 52.3321 24.4154C52.4917 25.4538 53.1733 26.3827 54.2989 26.5923C54.6997 26.6867 55.1497 26.682 55.6405 26.5439C56.2189 26.3816 56.6797 25.9867 57.0001 25.4917C57.2797 25.1568 57.4885 24.8022 57.5497 24.5179C57.6325 24.1334 57.5905 23.6107 57.5869 23.2044C57.5845 22.9108 57.3361 22.6553 57.5773 22.4308C57.6973 22.3191 58.6513 22.0106 58.8637 21.9772C59.7841 21.8356 60.6696 22.3111 60.672 23.1526C61.062 23.0167 60.9936 21.96 60.8616 21.7079C60.7909 21.5732 60.0901 21.0264 59.9053 20.9769C59.2249 20.7938 58.4653 21.0033 57.8881 21.3073C57.6949 21.4097 57.3205 21.9588 57.1345 21.9346C56.3965 21.4765 55.7101 20.8583 54.6853 21.039C54.6289 21.0494 54.5809 21.0655 54.5389 21.0862C54.3181 21.1323 54.1045 21.2071 53.9029 21.305C53.8957 21.3027 53.8885 21.3015 53.8813 21.298C53.5069 21.1599 53.2885 20.3023 52.4161 19.9915C51.7009 19.7359 51.2917 19.7889 50.6125 20.0824C49.8542 20.4105 49.8362 21.1749 49.853 21.8161L50.6677 21.0782C51.6649 20.7133 52.3465 21.1565 53.1445 21.5858V21.5881Z" fill="#D9F5F6"/>
<path d="M63.8525 37.5951C63.2405 37.2648 58.9481 35.5184 58.8689 35.2226C58.8449 34.9647 60.4445 34.0162 60.2861 33.8354C56.7281 32.9594 59.5853 30.6594 60.6509 29.1974C61.1417 28.524 63.1481 25.897 61.8017 25.349C61.5809 25.2593 61.3985 25.2385 61.1573 25.2892C60.7205 25.3824 58.2521 27.8275 57.4385 28.3133C55.9481 29.2043 53.829 29.5071 52.4262 28.2177C51.2634 27.1483 49.893 23.2643 49.8534 21.8173C49.5054 21.7827 49.6902 20.6569 49.089 20.5257C48.2742 20.3472 48.2406 20.7559 48.2274 21.3361C48.1986 22.706 48.3978 24.2796 48.5658 25.6541C49.083 29.8858 50.7402 34.0024 49.5966 38.2824L51.5154 38.0694C52.263 39.8353 53.025 42.27 54.4362 43.7251C55.5365 44.8601 58.0781 45.255 57.6785 43.26C57.4865 42.3011 56.0525 40.4443 55.6145 39.2586C54.4793 36.1907 56.3417 37.8472 57.7457 38.6416C59.2145 39.4715 63.2789 41.8119 64.7741 40.214C65.68 39.2448 64.8772 38.1477 63.8513 37.594L63.8525 37.5951Z" fill="#D9F5F6"/>
</g>
<defs>
<clipPath id="clip0_1569_39975">
<rect width="82" height="65" fill="white"/>
</clipPath>
</defs>
</svg>
