<svg width="32" height="32" viewBox="0 0 32 32" fill="none" xmlns="http://www.w3.org/2000/svg">
<rect x="0.5" y="0.5" width="31" height="31" stroke="white"/>
<path d="M13.5996 26.9796C14.2271 27.6328 15.0938 28.0021 15.9996 28.0021C16.9054 28.0021 17.7721 27.6328 18.3996 26.9796" stroke="#28B6BE" stroke-width="1.92" stroke-miterlimit="10" stroke-linecap="round"/>
<path d="M23.9991 15.2V11.92C23.8675 7.57065 20.3496 4.08792 15.9991 4C11.6339 4.1254 8.12454 7.63472 7.99914 12L7.99914 15.2C7.99914 18.8 5.11914 19.44 5.11914 21.44C5.11914 23.28 9.35914 24.72 15.9991 24.72C22.6391 24.72 26.8791 23.28 26.8791 21.44C26.8791 19.44 23.9991 18.8 23.9991 15.2Z" stroke="#28B6BE" stroke-width="1.92" stroke-miterlimit="10" stroke-linecap="round"/>
</svg>
