<svg width="27" height="29" viewBox="0 0 27 29" fill="none" xmlns="http://www.w3.org/2000/svg">
<path d="M20.0817 3.42384L19.6454 5.14196C22.7461 7.21579 24.7908 10.7493 24.7908 14.7505C24.7908 21.0323 19.7506 26.1621 13.4989 26.2986L12.1689 27.944C12.5213 27.9731 12.8781 27.9876 13.2394 27.9876C20.5392 27.9876 26.4776 22.048 26.4776 14.7493C26.4776 9.95181 23.915 5.74375 20.0839 3.42272L20.0817 3.42384ZM1.68568 14.7505C1.68568 8.46635 6.73042 3.33771 12.9799 3.20013L14.3065 1.55583C13.9541 1.52675 13.5973 1.51221 13.2383 1.51221C5.9396 1.51221 0 7.44957 0 14.7505C0 19.548 2.566 23.7561 6.39597 26.0771L6.8311 24.3567C3.73042 22.2829 1.68568 18.7516 1.68568 14.7505Z" fill="#28B6BE"/>
<path d="M21.5208 12.7282C21.3776 12.4284 21.0935 12.2494 20.7624 12.2494H15.9839L18.6942 1.55369C18.7613 1.28859 18.7143 1.04139 18.5566 0.840045C18.391 0.627517 18.1315 0.5 17.8619 0.5C17.6125 0.5 17.391 0.60962 17.2232 0.817673L5.06328 15.8792C4.85411 16.1376 4.81495 16.4709 4.95813 16.7707C5.09907 17.066 5.39102 17.2494 5.71764 17.2494H10.495L7.78475 27.9463C7.71764 28.2114 7.76462 28.4586 7.92234 28.6611C8.08677 28.8736 8.34627 29 8.61585 29C8.86529 29 9.08677 28.8904 9.25567 28.6812L21.4156 13.6197C21.6214 13.3658 21.6617 13.0235 21.5197 12.7282H21.5208Z" fill="#28B6BE"/>
</svg>
