<svg width="26" height="26" viewBox="0 0 26 26" fill="none" xmlns="http://www.w3.org/2000/svg">
<path d="M21.1708 10.3012C19.3331 10.3012 18.5817 9.00152 19.4955 7.40742C20.0235 6.48344 19.7087 5.30564 18.7848 4.77765L17.0282 3.77245C16.2261 3.29524 15.1904 3.57954 14.7132 4.38167L14.6015 4.57458C13.6877 6.16869 12.185 6.16869 11.261 4.57458L11.1493 4.38167C10.6924 3.57954 9.65675 3.29524 8.85462 3.77245L7.09806 4.77765C6.17409 5.30564 5.85933 6.4936 6.38732 7.41757C7.31129 9.00152 6.55993 10.3012 4.72214 10.3012C3.66617 10.3012 2.79297 11.1642 2.79297 12.2303V14.0174C2.79297 15.0733 3.65602 15.9465 4.72214 15.9465C6.55993 15.9465 7.31129 17.2462 6.38732 18.8403C5.85933 19.7643 6.17409 20.9421 7.09806 21.47L8.85462 22.4752C9.65675 22.9525 10.6924 22.6682 11.1696 21.866L11.2813 21.6731C12.1951 20.079 13.6979 20.079 14.6218 21.6731L14.7335 21.866C15.2107 22.6682 16.2464 22.9525 17.0485 22.4752L18.8051 21.47C19.729 20.9421 20.0438 19.7541 19.5158 18.8403C18.5918 17.2462 19.3432 15.9465 21.181 15.9465C22.237 15.9465 23.1102 15.0835 23.1102 14.0174V12.2303C23.1 11.1744 22.237 10.3012 21.1708 10.3012ZM12.9465 16.4237C11.129 16.4237 9.6466 14.9413 9.6466 13.1238C9.6466 11.3064 11.129 9.82395 12.9465 9.82395C14.764 9.82395 16.2464 11.3064 16.2464 13.1238C16.2464 14.9413 14.764 16.4237 12.9465 16.4237Z" fill="#28B6BE"/>
</svg>
